<?xml version="1.0" encoding="iso-8859-1"?>
<!-- Generator: Adobe Illustrator 19.0.0, SVG Export Plug-In . SVG Version: 6.00 Build 0)  -->
<svg version="1.1" id="Capa_1" xmlns="http://www.w3.org/2000/svg" xmlns:xlink="http://www.w3.org/1999/xlink" x="0px" y="0px"
	 viewBox="0 0 385.567 385.567" style="enable-background:new 0 0 385.567 385.567;" xml:space="preserve">
<path style="fill:#4DCFE0;" d="M369.894,385.567c-4.18,0-7.837-1.567-10.971-4.702l-89.861-89.861
	c-6.269-6.269-6.269-16.196,0-21.943c6.269-6.269,16.196-6.269,21.943,0l89.861,89.861c6.269,6.269,6.269,16.196,0,21.943
	C377.731,384,374.073,385.567,369.894,385.567z"/>
<path style="fill:#1185E0;" d="M169.796,339.592C76.278,339.592,0,263.314,0,169.796S76.278,0,169.796,0
	s169.796,76.278,169.796,169.796S263.314,339.592,169.796,339.592z M169.796,31.347c-76.278,0-138.449,62.171-138.449,138.449
	s62.171,138.449,138.449,138.449s138.449-62.171,138.449-138.449S246.073,31.347,169.796,31.347z"/>
<g>
</g>
</svg>
