<svg xmlns="http://www.w3.org/2000/svg" width="474.34" height="158.663" viewBox="0 0 474.34 158.663">
  <g id="Group_1" data-name="Group 1" transform="translate(-722.706 -461.122)">
    <path id="Path_1" data-name="Path 1" d="M805.116,1248.5l25.27-36.186s15.592-35.07,64.639-21.989,70.277-49.158,70.277-49.158,6.473-31.461,25.22-48.967" transform="translate(-82 -629)" fill="none" stroke="#01c5f6" stroke-width="1"/>
    <path id="Path_2" data-name="Path 2" d="M914.249,1239.463s31.207-31.274,59.5-34.127,46.4-2.668,64.908-19.7,28.1-44.591,62.332-48.19,58.1,7.775,95.738-47.038" transform="translate(-82 -629)" fill="none" stroke="#eac846" stroke-width="1"/>
    <path id="Path_3" data-name="Path 3" d="M1062.111,1239.463s4.63-51.252,68.559-58.338,76.3-40.06,76.3-40.06,17.521-47.568,70.907-47.875" transform="translate(-82 -629)" fill="none" stroke="#01c5f6" stroke-width="1"/>
    <path id="Path_4" data-name="Path 4" d="M1180.143,1239.463s24.987-56.927,98.864-62.653" transform="translate(-82 -629)" fill="none" stroke="#01f6bd" stroke-width="1"/>
  </g>
</svg>
