<svg xmlns="http://www.w3.org/2000/svg" width="304.34" height="156.951" viewBox="0 0 304.34 156.951">
  <g id="Group_2" data-name="Group 2" transform="translate(-754.706 -470.833)">
    <g id="Group_1" data-name="Group 1">
      <path id="Path_1" data-name="Path 1" d="M805.116,1248.5l25.27-36.186s15.592-35.07,64.639-21.989,70.277-49.158,70.277-49.158,6.473-31.461,25.22-48.967" transform="translate(-50 -621)" fill="none" stroke="#01c5f6" stroke-width="1"/>
      <path id="Path_2" data-name="Path 2" d="M942,1220.973s3.453-12.784,31.746-15.637,46.4-2.668,64.908-19.7,28.1-44.591,62.332-48.19,58.1,7.775,95.738-47.038" transform="translate(-161 -594)" fill="none" stroke="#eac846" stroke-width="1"/>
      <path id="Path_3" data-name="Path 3" d="M1062.111,1155.844s1.855-21.953,27.462-24.988,30.561-17.159,30.561-17.159,7.018-20.375,28.4-20.506" transform="translate(-174 -528.381)" fill="none" stroke="#01c5f6" stroke-width="1"/>
      <path id="Path_4" data-name="Path 4" d="M1180.143,1239.463s24.987-56.927,98.864-62.653" transform="translate(-220 -612)" fill="none" stroke="#01f6bd" stroke-width="1"/>
    </g>
  </g>
</svg>
