<svg xmlns="http://www.w3.org/2000/svg" width="69.945" height="75.234" viewBox="0 0 69.945 75.234">
  <g id="Group_39" data-name="Group 39" transform="translate(-273 -70)">
    <g id="Group_17" data-name="Group 17" transform="translate(266 65)">
      <path id="Path_56" data-name="Path 56" d="M668.437,208.776l27.19,26.83,6.366-6.544V192.1s-12.969.821-22.162,6.564S668.437,208.776,668.437,208.776Z" transform="translate(-659.892 -168.721)" fill="#bcdaff"/>
      <path id="Path_57" data-name="Path 57" d="M701.994,208.776l-27.19,26.83-6.366-6.544V192.1s12.969.821,22.162,6.564S701.994,208.776,701.994,208.776Z" transform="translate(-625.5 -168.721)" fill="#e5f1ff"/>
      <g id="Group_16" data-name="Group 16" transform="translate(7 5)">
        <g id="logo">
          <path id="Path_49" data-name="Path 49" d="M32.759,65.272a1.075,1.075,0,0,1-.76-.315L4.775,37.733a1.075,1.075,0,0,1,0-1.52l33.9-33.9a1.075,1.075,0,0,1,1.52,0l33.9,33.9a1.075,1.075,0,0,1,0,1.519l-3.643,3.654c-.419.42-1.1-.207-1.522-.627a1.692,1.692,0,0,1,0-1.966L70.737,35.9l-31.3-30.23-31.3,31.3L33.522,62.362a3.624,3.624,0,0,1,.233,2.246,1.075,1.075,0,0,1-.993.664Z" transform="translate(-4.46 -2)" fill="#1273eb"/>
          <path id="Path_50" data-name="Path 50" d="M50.545,54.044a1.075,1.075,0,0,1-.993-.663,3.624,3.624,0,0,1,.233-2.246l3.009-3.009a2.83,2.83,0,0,1,2.595,0,1.075,1.075,0,0,1,0,1.52L51.3,53.729A1.075,1.075,0,0,1,50.545,54.044Z" transform="translate(-1.095 1.425)" fill="#1273eb"/>
          <path id="Path_51" data-name="Path 51" d="M43.285,61.3a1.075,1.075,0,0,1-.993-.664,3.622,3.622,0,0,1,.234-2.246l2.934-2.923a2.83,2.83,0,0,1,2.595,0,1.075,1.075,0,0,1,0,1.52l-4.009,4a1.075,1.075,0,0,1-.759.314Z" transform="translate(-1.638 1.974)" fill="#1273eb"/>
          <path id="Path_52" data-name="Path 52" d="M57.955,46.763c-.434,0-1.9-.262-2.067-.663s1-1.939,1.308-2.246l4.084-4.084c.42-.42,1.1.655,1.52,1.075a1.075,1.075,0,0,1,0,1.52l-4.084,4.084A1.075,1.075,0,0,1,57.955,46.763Z" transform="translate(-0.616 0.817)" fill="#1273eb"/>
          <path id="Path_53" data-name="Path 53" d="M55.9,73.489H20.7a1.075,1.075,0,0,1-.793-1.8l17.6-19.266a1.108,1.108,0,0,1,1.586,0l17.6,19.266a1.075,1.075,0,0,1-.793,1.8Zm-31.685-2.15H52.385L38.3,55.821Z" transform="translate(-3.326 1.745)" fill="#1273eb"/>
          <path id="Path_54" data-name="Path 54" d="M37.075,57.973A1.075,1.075,0,0,1,36,56.9V3.075a1.075,1.075,0,0,1,2.15,0V56.9A1.075,1.075,0,0,1,37.075,57.973Z" transform="translate(-2.102 -2)" fill="#1273eb"/>
          <path id="Path_55" data-name="Path 55" d="M65.845,29.85c-.225,0,.631,1,.448.873C48.619,18,30.348,18,12.674,30.722c-.482.347-1.153-.837-1.5-1.319a1.075,1.075,0,0,1,.244-1.5c18.271-13.152,36.789-13.152,55.056,0a1.075,1.075,0,0,1,.394,1.2c-.144.444.518.744-1.024.744Z" transform="translate(-3.973 -0.801)" fill="#1273eb"/>
        </g>
      </g>
    </g>
  </g>
</svg>
