<?xml version="1.0"?>
<svg xmlns="http://www.w3.org/2000/svg" xmlns:xlink="http://www.w3.org/1999/xlink" xmlns:svgjs="http://svgjs.com/svgjs" version="1.1" width="512" height="512" x="0" y="0" viewBox="0 0 512 512" style="enable-background:new 0 0 512 512" xml:space="preserve" class=""><g>
<g xmlns="http://www.w3.org/2000/svg">
	<circle style="" cx="256" cy="256" r="246.691" fill="#a4c2f7" data-original="#a4c2f7"/>
	<ellipse style="" cx="242.036" cy="256" rx="232.727" ry="246.691" fill="#e3e7f2" data-original="#e3e7f2"/>
	<path style="" d="M256,502.691c2.41,0,4.792-0.114,7.185-0.182C137.797,498.697,37.236,389.834,37.236,256   S137.797,13.303,263.185,9.491c-2.393-0.068-4.776-0.182-7.185-0.182C119.756,9.309,9.309,119.756,9.309,256   S119.756,502.691,256,502.691L256,502.691z" fill="#ffffff" data-original="#ffffff"/>
	<path style="" d="M182.575,396.123l-73.611,40.152c-4.235,2.36-8.197,5.181-11.813,8.41   c91.428,77.035,224.948,77.375,316.768,0.808c-3.965-3.404-8.321-6.324-12.976-8.699l-78.818-39.408   c-10.185-5.092-16.618-15.502-16.618-26.889V339.57c2.647-3.066,5.135-6.266,7.456-9.586   c10.633-15.113,18.895-31.763,24.498-49.373c10.38-3.157,17.496-12.704,17.554-23.553v-33.006   c-0.027-6.992-3.027-13.643-8.251-18.291v-47.718c0,0,9.798-74.261-90.764-74.261s-90.764,74.261-90.764,74.261v47.718   c-5.224,4.648-8.224,11.299-8.251,18.291v33.006c0.026,8.412,4.324,16.234,11.409,20.767c5.478,22.458,15.65,43.502,29.847,61.745   v30.16C198.241,380.732,192.233,390.854,182.575,396.123z" fill="#7facfa" data-original="#7facfa"/>
	<path style="" d="M396.624,436.16l-103.696-39.408c-10.185-5.092-16.618-15.502-16.618-26.889v-30.927   c2.647-3.066,5.135-6.266,7.456-9.586c10.633-15.113,18.895-31.763,24.498-49.373c10.38-3.157,17.496-12.704,17.554-23.553v-33.006   c-0.027-6.992-3.028-13.643-8.251-18.291v-47.718c0,0,9.798-74.261-90.764-74.261c-5.986,0-11.555,0.279-16.784,0.775   c0.61,4.834-2.103,9.476-6.615,11.316c-12.04,4.939-23.692,10.776-34.858,17.461c4.601,0.805,7.949,4.811,7.924,9.482   c2.006,34.272-9.784,74.512-20.381,109.543c0.326,13.793,0.628,27.589,1.029,41.382c1.019,3.184,2.041,6.366,3.04,9.554   c1.925,1.17,3.434,2.915,4.315,4.989c4.252,10.127,8.993,20.506,13.106,31.076c5.606-1.563,11.49,1.342,13.658,6.742   c3.629,10.249,5.902,20.929,6.76,31.768c0.439,3.255-1.153,6.449-4.016,8.059c-5.176,17.928-13.916,34.627-25.697,49.098   c-2.554,2.488-6.226,3.453-9.674,2.543c-3.447-0.91-6.165-3.562-7.158-6.986c-0.499-1.731-0.905-3.487-1.215-5.261   c-6.922,4.111-14.343,7.703-22.354,12.189c-4.302,2.409-36.988,17.414-37.804,21.136c-4.619,21.061,69.219,47.182,106.288,61.95   c10.093,1.323,20.258,2.022,30.437,2.093c60.082,0,140.007-21.5,182.797-57.198C405.635,441.455,401.279,438.535,396.624,436.16   L396.624,436.16z" fill="#a4c2f7" data-original="#a4c2f7"/>
	<g>
		<path style="" d="M256,512C114.615,512,0,397.385,0,256S114.615,0,256,0s256,114.615,256,256    C511.837,397.317,397.317,511.837,256,512z M256,18.618C124.898,18.618,18.618,124.898,18.618,256S124.898,493.382,256,493.382    S493.382,387.102,493.382,256C493.232,124.96,387.04,18.768,256,18.618z" fill="#1273eb" data-original="#428dff" class=""/>
		<path style="" d="M256,512c-60.325-0.034-118.704-21.352-164.855-60.2c-2.078-1.752-3.286-4.324-3.309-7.041    c-0.023-2.717,1.143-5.309,3.191-7.095c4.128-3.674,8.65-6.882,13.482-9.564l73.609-40.145c6.67-3.639,10.819-10.63,10.818-18.227    v-26.936c-13.292-17.813-23.063-37.998-28.791-59.473c-7.893-6.436-12.473-16.08-12.473-26.264v-33    c0.028-8.102,2.956-15.926,8.255-22.055v-43.446c-1.609-19.799,4.694-39.429,17.527-54.591    C190.609,84.391,218.382,74.473,256,74.473s65.391,9.918,82.545,29.491c12.833,15.162,19.135,34.792,17.527,54.591V202    c5.298,6.129,8.227,13.953,8.255,22.055v33c0.016,13.107-7.549,25.04-19.409,30.618c-5.825,16.967-14.024,33.024-24.355,47.69    c-1.991,2.809-3.918,5.355-5.745,7.609v27.527c-0.025,7.866,4.425,15.063,11.473,18.556l78.818,39.409    c5.314,2.701,10.285,6.028,14.809,9.909c2.105,1.774,3.316,4.388,3.309,7.14c-0.007,2.752-1.232,5.36-3.346,7.123    C373.869,490.966,315.886,511.969,256,512z M112.436,445c84.392,64.16,201.108,64.543,285.918,0.936    c-0.527-0.282-1.045-0.555-1.573-0.818l-78.818-39.409c-13.375-6.626-21.816-20.283-21.764-35.209v-30.927    c0-2.258,0.82-4.439,2.309-6.136c2.431-2.829,4.718-5.778,6.854-8.836c10.087-14.34,17.923-30.138,23.236-46.845    c0.933-2.889,3.217-5.142,6.118-6.036c6.46-1.982,10.901-7.907,10.991-14.664v-33c-0.015-4.362-1.902-8.507-5.182-11.382    c-1.956-1.764-3.073-4.275-3.073-6.909v-47.718c0-0.407,0.027-0.814,0.082-1.218c1.087-14.788-3.632-29.417-13.155-40.782    c-13.49-15.227-36.49-22.954-68.381-22.954c-32.018,0-55.082,7.791-68.545,23.145c-9.502,11.294-14.169,25.878-12.991,40.591    c0.055,0.404,0.082,0.811,0.082,1.218v47.718c0,2.634-1.117,5.145-3.073,6.909c-3.28,2.875-5.167,7.02-5.182,11.382v33    c0.019,5.256,2.716,10.139,7.155,12.955c2.034,1.317,3.475,3.375,4.018,5.736c5.182,21.023,14.697,40.731,27.937,57.864    c1.388,1.678,2.149,3.786,2.155,5.964v30.154c0.003,14.413-7.871,27.676-20.527,34.573l0,0l-73.609,40.145    C113.091,444.627,112.764,444.809,112.436,445z" fill="#1273eb" data-original="#428dff" class=""/>
	</g>
</g>
<g xmlns="http://www.w3.org/2000/svg">
</g>
<g xmlns="http://www.w3.org/2000/svg">
</g>
<g xmlns="http://www.w3.org/2000/svg">
</g>
<g xmlns="http://www.w3.org/2000/svg">
</g>
<g xmlns="http://www.w3.org/2000/svg">
</g>
<g xmlns="http://www.w3.org/2000/svg">
</g>
<g xmlns="http://www.w3.org/2000/svg">
</g>
<g xmlns="http://www.w3.org/2000/svg">
</g>
<g xmlns="http://www.w3.org/2000/svg">
</g>
<g xmlns="http://www.w3.org/2000/svg">
</g>
<g xmlns="http://www.w3.org/2000/svg">
</g>
<g xmlns="http://www.w3.org/2000/svg">
</g>
<g xmlns="http://www.w3.org/2000/svg">
</g>
<g xmlns="http://www.w3.org/2000/svg">
</g>
<g xmlns="http://www.w3.org/2000/svg">
</g>
</g></svg>
