<?xml version="1.0" encoding="iso-8859-1"?>
<!-- Generator: Adobe Illustrator 19.0.0, SVG Export Plug-In . SVG Version: 6.00 Build 0)  -->
<svg version="1.1" id="Capa_1" xmlns="http://www.w3.org/2000/svg" xmlns:xlink="http://www.w3.org/1999/xlink" x="0px" y="0px"
	 viewBox="0 0 512 512" style="enable-background:new 0 0 512 512;" xml:space="preserve">
<path style="fill:#FFE17D;" d="M249.03,10.865L28.063,117.537c-2.77,1.337-4.531,4.143-4.531,7.219v262.485
	c0,3.076,1.761,5.881,4.531,7.219L249.03,501.135c4.404,2.126,9.536,2.126,13.94,0l220.967-106.674
	c2.77-1.337,4.531-4.143,4.531-7.219V124.757c0-3.076-1.761-5.881-4.531-7.219L262.97,10.865
	C258.566,8.739,253.434,8.739,249.03,10.865z"/>
<path style="fill:#FFC350;" d="M24.865,120.368c-0.843,1.283-1.333,2.793-1.333,4.388v262.485c0,3.077,1.761,5.881,4.531,7.219
	L249.03,501.135c2.202,1.063,4.586,1.595,6.97,1.595V231.951L24.865,120.368z"/>
<path style="fill:#FFD164;" d="M487.135,120.368c0.843,1.283,1.333,2.793,1.333,4.388v262.485c0,3.077-1.761,5.881-4.531,7.219
	L262.97,501.135c-2.202,1.063-4.586,1.595-6.97,1.595V231.951L487.135,120.368z"/>
<polygon style="fill:#FF8087;" points="408.807,158.052 176.86,46 115.718,75.636 348.185,187.863 "/>
<path style="fill:#E6646E;" d="M348.185,187.863v86.94c0,2.955,3.089,4.894,5.751,3.609l50.34-24.302
	c2.771-1.337,4.531-4.143,4.531-7.219v-88.839L348.185,187.863z"/>
<path d="M491.729,112.97L259.261,0.746c-2.061-0.994-4.461-0.994-6.521,0L20.271,112.97c-2.592,1.251-4.239,3.876-4.239,6.754
	v272.549c0,2.878,1.647,5.503,4.239,6.754l232.468,112.226c1.03,0.497,2.146,0.746,3.261,0.746s2.23-0.249,3.261-0.746
	l232.468-112.226c2.592-1.251,4.239-3.876,4.239-6.754V119.725C495.968,116.846,494.32,114.222,491.729,112.97z M256,15.828
	l215.217,103.897l-62.387,30.118c-0.395-0.301-0.812-0.579-1.27-0.8L193.805,45.853L256,15.828z M176.867,54.333l214.904,103.746
	l-44.015,21.249L132.941,75.623L176.867,54.333z M355.686,192.156l41.113-19.848v78.546l-41.113,19.848V192.156z M263.5,492.551
	V236.658l51.873-25.042c3.73-1.801,5.294-6.284,3.493-10.015c-1.801-3.729-6.284-5.295-10.015-3.493L256,223.623l-20.796-10.04
	c-3.731-1.803-8.214-0.237-10.015,3.493s-0.237,8.214,3.493,10.015l19.818,9.567v255.892L31.032,387.566V131.673l165.6,79.945
	c1.051,0.508,2.162,0.748,3.255,0.748c2.788,0,5.466-1.562,6.759-4.241c1.801-3.73,0.237-8.214-3.493-10.015l-162.37-78.386
	l74.505-35.968L340.582,192.52c0.033,0.046,0.07,0.087,0.104,0.132v89.999c0,2.581,1.327,4.98,3.513,6.353
	c1.214,0.762,2.599,1.147,3.988,1.147c1.112,0,2.227-0.247,3.26-0.746l56.113-27.089c2.592-1.251,4.239-3.875,4.239-6.754v-90.495
	l69.169-33.392v255.893L263.5,492.551z"/>
<path d="M92.926,358.48l-34.115-16.469c-3.732-1.803-8.214-0.237-10.015,3.493s-0.237,8.214,3.493,10.015l34.115,16.469
	c1.051,0.508,2.162,0.748,3.255,0.748c2.788,0,5.466-1.562,6.759-4.241C98.22,364.764,96.656,360.281,92.926,358.48z"/>
<path d="M124.323,338.042l-65.465-31.604c-3.731-1.801-8.214-0.237-10.015,3.494c-1.8,3.73-0.236,8.214,3.494,10.015l65.465,31.604
	c1.051,0.507,2.162,0.748,3.255,0.748c2.788,0,5.466-1.562,6.759-4.241C129.617,344.327,128.053,339.842,124.323,338.042z"/>
<g>
</g>
<g>
</g>
<g>
</g>
<g>
</g>
<g>
</g>
<g>
</g>
<g>
</g>
<g>
</g>
<g>
</g>
<g>
</g>
<g>
</g>
<g>
</g>
<g>
</g>
<g>
</g>
<g>
</g>
</svg>
