<svg id="Capa_1" enable-background="new 0 0 512 512" height="512" viewBox="0 0 512 512" width="512" xmlns="http://www.w3.org/2000/svg"><g><g><g><g><g><g><g><path d="m313.801 94.915s49.06-63.674 34.953-81.941c-4.808-6.225-8.908 2.229-18.851 2.229-11.683 0-11.683-7.644-23.367-7.644-11.682 0-11.682 7.644-23.364 7.644-11.681 0-11.681-7.644-23.362-7.644s-11.681 7.644-23.363 7.644c-9.955 0-14.038-8.564-18.878-2.336-14.114 18.166 34.229 82.047 34.229 82.047-213.505 140.358-144.664 331.239-18.607 331.239h99.973c126.437 0 194.852-190.415-19.363-331.238z" fill="#eabc6b"/></g></g><g><path d="m313.801 94.915s49.06-63.674 34.953-81.941c-4.808-6.225-8.908 2.229-18.851 2.229-11.683 0-11.683-7.644-23.367-7.644-11.682 0-11.682 7.644-23.364 7.644-.575 0-1.101-.032-1.622-.068-4.694 20.12-25.846 51.466-37.95 68.249 4.767 6.995 8.198 11.53 8.198 11.53-2.848 1.872-5.635 3.755-8.383 5.645 203.99 140.211 135.734 325.593 10.978 325.593h78.771c126.437.001 194.852-190.414-19.363-331.237z" fill="#e8ae4d"/></g><g><path d="m322.923 117.562c-28.507 7.199-56.671 7.2-85.183 0-9.924-2.506-15.549-13.665-11.978-23.808.04-.113.08-.227.12-.34 2.994-8.504 11.486-13.276 19.809-11.187 23.343 5.861 45.932 5.862 69.282 0 8.323-2.09 16.814 2.683 19.809 11.187.04.113.08.227.12.34 3.57 10.144-2.055 21.302-11.979 23.808z" fill="#ffe07d"/></g></g></g></g><g><g><g><g><g><g><g><g><g><g><g><g><g><path d="m54.883 458.902 108.566 40.41c9.221 3.432 18.98 5.189 28.818 5.189h111.886c15.658 0 30.993-4.45 44.219-12.83l140.092-88.771c9.243-8.207 10.956-22 4.002-32.219-7.608-11.181-20.194-13.125-34.043-6.576l-136.393 60.055.161-22.129c-1.806-18.163-15.791-32.74-33.864-35.298l-83.059-9.563c-19.16-2.711-28.735-9.132-45.438-18.903-22.804-13.34-48.748-20.371-75.167-20.371h-29.78v141.006z" fill="#ffddce"/></g><g><path d="m54.883 458.902 108.566 40.41c9.221 3.432 18.98 5.189 28.818 5.189h111.886c15.658 0 30.993-4.45 44.219-12.83l140.092-88.771c9.243-8.207 10.956-22 4.002-32.219-7.608-11.181-20.194-13.125-34.043-6.576l-136.393 60.055.161-22.129c-1.806-18.163-15.791-32.74-33.864-35.298l-83.059-9.563c-19.16-2.711-28.735-9.132-45.438-18.903-22.804-13.34-48.748-20.371-75.167-20.371h-29.78v141.006z" fill="#ffddce"/></g><path d="m492.467 370.682c-7.608-11.181-20.194-13.125-34.043-6.576l-37.516 16.519c1.817 2.876 3.262 5.171 3.262 5.171 6.953 10.219 5.24 24.011-4.002 32.219l-81.629 51.725c-10.751 4.922-22.473 7.504-34.385 7.504h-111.886c-9.838 0-19.598-1.757-28.818-5.189l-108.566-40.41v27.258l108.566 40.41c9.221 3.432 18.98 5.189 28.818 5.189h91.412 20.474c15.658 0 30.993-4.45 44.219-12.83l140.092-88.77c9.242-8.208 10.956-22.001 4.002-32.22z" fill="#ffcbbe"/><g><path d="m312.008 379.236-.004.534.352-.155c-.113-.129-.232-.253-.348-.379z" fill="#f5dbcc"/></g></g></g><path d="m78.244 480.527c0 7.877-6.386 14.263-14.263 14.263h-34.423c-7.877 0-14.263-6.386-14.263-14.263v-174.644c0-7.877 6.386-14.263 14.263-14.263h34.423c7.877 0 14.263 6.386 14.263 14.263z" fill="#407093"/></g></g></g></g></g></g></g></g></g></g></g><g><path d="m498.667 366.464c-9.551-14.036-25.752-17.463-43.352-9.181l-9.328 4.107c14.708-31.35 16.533-66.297 9.211-99.307-8.409-37.913-28.72-74.641-60.368-109.164-2.798-3.053-7.541-3.259-10.595-.46-3.053 2.798-3.259 7.541-.46 10.595 29.846 32.556 48.95 66.967 56.782 102.276 8.249 37.193 3.45 75.549-17.601 106.2l-93.342 41.099.077-10.542c.002-.266-.01-.532-.037-.797-2.155-21.667-18.717-38.93-40.276-41.98-.064-.01-.128-.018-.193-.025l-82.961-9.552c-31.901-4.541-40.117-23.658-83.321-34.559-2.985-25.33.994-52.299 11.9-79.336 16.425-40.718 48.558-80.278 93.104-114.711 16.603 11.772 90.676 13.237 107.252-1.949 8.492 6.449 16.597 13.095 24.147 19.822 1.429 1.274 3.211 1.9 4.986 1.9 2.064 0 4.12-.847 5.601-2.51 2.755-3.092 2.481-7.832-.611-10.587-8.276-7.373-17.178-14.648-26.515-21.679 2.188-9.278-.874-20.137-8.954-26.601 23.479-35.612 30.308-58.921 20.875-71.133-6.479-8.389-14.539-4.452-17.981-2.77-5.834 2.848-9.015 2.998-14.383-.514-10.241-6.701-21.005-6.917-31.576 0-5.436 3.557-9.717 3.557-15.151 0-10.242-6.701-21.002-6.917-31.575 0-5.43 3.554-8.623 3.334-14.365.48-3.438-1.709-11.489-5.711-18.009 2.679-9.221 11.868-3.052 34.442 18.843 68.843-1.341.725-2.619 1.576-3.812 2.548-8.708-9.196-22.975-18.787-43.607-16.483-17.113 1.915-29.732-3.74-37.306-8.82-3.44-2.304-8.098-1.386-10.404 2.052-2.306 3.44-1.387 8.098 2.052 10.404 9.655 6.473 25.701 13.679 47.322 11.268 15.94-1.788 26.756 6.358 33.489 14.648-.092.32-.177.642-.256.964-5.743.09-14.326.626-23.778 2.592-22.732 4.729-39.606 15.532-48.799 31.244-2.091 3.574-.889 8.168 2.685 10.26 3.575 2.091 8.168.888 10.259-2.686 13.674-23.369 47.051-26.227 60.308-26.406.057.165.124.328.184.492-47.308 36.493-80.244 77.19-97.932 121.04-11.18 27.717-15.646 55.485-13.379 81.874-7.191-1.064-14.465-1.635-21.774-1.685v-4.535c0-11.999-9.762-21.76-21.761-21.76h-34.424c-11.999 0-21.761 9.762-21.761 21.76v174.644c0 12 9.762 21.761 21.761 21.761h34.423c11.999 0 21.761-9.762 21.761-21.761v-2.136l75.091 27.949c10.091 3.755 20.667 5.66 31.434 5.66h111.886c17.106 0 33.785-4.84 48.233-13.995 149.259-94.62 140.195-88.733 141.057-89.497 12.023-10.672 14.269-28.746 5.224-42.04zm-177.58-256.172c-27.422 6.924-54.084 6.924-81.512 0-11.769-2.975-8.359-23.965 4.289-20.793 24.538 6.16 48.394 6.16 72.934 0 12.428-3.12 16.247 17.771 4.289 20.793zm-98.279-91.361c.059.029.118.059.174.087 10.149 5.044 19.042 5.318 29.251-1.361 12.776-8.363 14.163 5.046 30.938 5.046 8.076 0 12.533-2.916 15.787-5.046 5.437-3.558 9.719-3.556 15.155 0 10.254 6.71 18.932 6.379 29.376 1.342 1.543 5.562-1.949 22.143-24.185 55.249-11.042-.188-27.066 10.657-72.428.562-22.188-33.534-25.619-50.276-24.068-55.879zm261.085 377.99-139.534 88.417c-12.043 7.631-25.946 11.666-40.205 11.666h-111.886c-8.975 0-17.791-1.588-26.203-4.719l-80.323-29.897v-80.755c0-4.142-3.357-7.499-7.498-7.499s-7.498 3.357-7.498 7.499v98.894c0 3.73-3.035 6.764-6.764 6.764h-34.424c-3.73 0-6.764-3.035-6.764-6.764v-174.644c0-3.73 3.034-6.763 6.764-6.763h34.423c3.73 0 6.764 3.034 6.764 6.763v40.694c0 4.142 3.357 7.499 7.498 7.499s7.498-3.357 7.498-7.499v-21.162c62.031.475 75.978 33.17 118.476 39.181.064.01.128.018.192.025l82.957 9.551c14.526 2.097 25.705 13.664 27.323 28.227l-.104 14.264h-77.365c-4.141 0-7.499 3.357-7.499 7.499s3.357 7.499 7.499 7.499h84.809c.947 0 2.041-.21 2.993-.625.153-.068 136.263-59.995 136.422-60.065 9.811-4.36 18.756-4.983 24.822 3.931 4.716 6.927 3.672 16.292-2.373 22.019z"/><path d="m282.307 340.22c4.141 0 7.499-3.357 7.499-7.499v-12.43c21.051-3.416 33.334-20.455 36.006-36.351 3.338-19.857-7.063-37.126-26.497-43.995-3.434-1.214-6.594-2.375-9.51-3.496v-47.812c8.871 1.471 14.197 6.062 14.585 6.405 3.046 2.77 7.76 2.565 10.555-.465 2.808-3.044 2.616-7.788-.428-10.596-.529-.488-9.713-8.757-24.712-10.486v-10.664c0-4.142-3.357-7.499-7.499-7.499-4.141 0-7.498 3.357-7.498 7.499v11.27c-1.808.346-3.66.786-5.563 1.359-12.72 3.831-22.228 14.738-24.815 28.463-2.347 12.455 1.602 24.433 10.305 31.259 4.997 3.919 11.287 7.507 20.073 11.343v59.301c-8.672-.367-14.01-1.995-23.322-8.087-3.465-2.266-8.113-1.297-10.38 2.17-2.267 3.465-1.296 8.113 2.17 10.38 12.241 8.008 20.424 10.097 31.532 10.529v11.903c0 4.142 3.357 7.499 7.499 7.499zm-18.316-116.838c-4.281-3.358-6.13-9.75-4.823-16.681 1.212-6.428 5.631-14.238 14.403-16.88.417-.126.827-.234 1.237-.344v40.505c-4.49-2.242-8.011-4.399-10.817-6.6zm30.326 30.703c18.66 6.595 17.504 22.617 16.705 27.37-1.654 9.841-8.878 20.347-21.217 23.509v-52.504c1.46.534 2.951 1.073 4.512 1.625z"/></g></g></svg>