<svg id="Capa_1" enable-background="new 0 0 512 512" height="512" viewBox="0 0 512 512" width="512" xmlns="http://www.w3.org/2000/svg"><g><g><g><path d="m174.845 502.589h-28.339c-7.413 0-12.972-6.784-11.514-14.053l36.288-166.847h52.294l-37.214 171.465c-1.101 5.487-5.92 9.435-11.515 9.435z" fill="#eac89f"/><path d="m198.6 321.689-37.214 171.465c-1.1 5.486-5.919 9.434-11.514 9.434h24.973c5.596 0 10.414-3.948 11.514-9.434l37.214-171.465z" fill="#d2af8c"/><path d="m337.155 502.589h28.339c7.413 0 12.972-6.784 11.514-14.053l-36.288-166.847h-52.294l37.214 171.465c1.101 5.487 5.92 9.435 11.515 9.435z" fill="#eac89f"/><path d="m377.009 488.536-36.288-166.847h-24.973l36.288 166.847c1.458 7.269-4.101 14.053-11.514 14.053h24.973c7.413 0 12.971-6.784 11.514-14.053z" fill="#d2af8c"/></g><path d="m487.77 39.295v287.57h-463.54v-287.57c0-16.51 13.39-29.89 29.89-29.89h403.76c16.5 0 29.89 13.38 29.89 29.89z" fill="#95d6a4"/><path d="m487.77 39.295v287.57h-24.98v-287.39c0-16.61-13.46-30.07-30.07-30.07h25.16c16.5 0 29.89 13.38 29.89 29.89z" fill="#78c2a4"/><path d="m504.5 307.605v21.06c0 7.13-5.78 12.91-12.91 12.91h-471.18c-7.13 0-12.91-5.78-12.91-12.91v-21.06c0-7.13 5.78-12.91 12.91-12.91h471.18c7.13 0 12.91 5.78 12.91 12.91z" fill="#f4dbb3"/><path d="m504.5 307.605v21.06c0 7.13-5.78 12.91-12.91 12.91h-25.05c7.17 0 12.99-5.81 12.99-12.98v-20.92c0-7.17-5.82-12.98-12.99-12.98h25.05c7.13 0 12.91 5.78 12.91 12.91z" fill="#eac89f"/><circle cx="137.379" cy="137.612" fill="#ffd15b" r="62.781"/><path d="m137.379 74.831c-4.276 0-8.451.431-12.487 1.246 28.69 5.791 50.294 31.138 50.294 61.535s-21.604 55.745-50.294 61.535c4.036.815 8.211 1.246 12.487 1.246 34.673 0 62.781-28.108 62.781-62.781s-28.108-62.781-62.781-62.781z" fill="#ffc344"/><path d="m276.196 263.27h-19.851c-4.126 0-7.47-3.345-7.47-7.47v-19.851c0-4.126 3.345-7.47 7.47-7.47h19.851c4.126 0 7.47 3.345 7.47 7.47v19.851c.001 4.126-3.344 7.47-7.47 7.47z" fill="#ffdfcf"/><path d="m355.867 263.27h-19.851c-4.126 0-7.47-3.345-7.47-7.47v-19.851c0-4.126 3.345-7.47 7.47-7.47h19.851c4.126 0 7.47 3.345 7.47 7.47v19.851c0 4.126-3.345 7.47-7.47 7.47z" fill="#edf4ff"/><path d="m434.531 263.27h-19.851c-4.126 0-7.47-3.345-7.47-7.47v-19.851c0-4.126 3.345-7.47 7.47-7.47h19.851c4.126 0 7.47 3.345 7.47 7.47v19.851c0 4.126-3.344 7.47-7.47 7.47z" fill="#e5646e"/><path d="m315.793 9.4v15.904c0 9.305-7.544 16.849-16.849 16.849h-85.887c-9.305 0-16.849-7.545-16.849-16.849v-15.904z" fill="#918291"/><path d="m290.82 9.4v15.904c0 9.305-7.545 16.849-16.849 16.849h24.973c9.305 0 16.849-7.545 16.849-16.849v-15.904z" fill="#7a6d79"/></g><g><path d="m207.66 137.612c0-38.753-31.528-70.281-70.281-70.281s-70.281 31.528-70.281 70.281 31.528 70.281 70.281 70.281 70.281-31.528 70.281-70.281zm-70.282 55.281c-30.482 0-55.281-24.799-55.281-55.281s24.799-55.281 55.281-55.281 55.281 24.799 55.281 55.281-24.798 55.281-55.281 55.281z"/><path d="m495.27 287.542v-248.247c0-20.617-16.773-37.39-37.39-37.39h-403.76c-20.617 0-37.39 16.772-37.39 37.39v81.428c0 4.143 3.358 7.5 7.5 7.5s7.5-3.357 7.5-7.5v-81.428c0-12.346 10.044-22.39 22.39-22.39h134.587v8.398c0 13.427 10.923 24.35 24.35 24.35h85.887c13.426 0 24.35-10.923 24.35-24.35v-8.398h134.586c12.346 0 22.39 10.044 22.39 22.39v247.897h-448.54v-131.644c0-4.143-3.358-7.5-7.5-7.5s-7.5 3.357-7.5 7.5v131.994c-9.501 1.74-16.73 10.065-16.73 20.061v21.064c0 11.255 9.156 20.411 20.411 20.411h137.238l-29.981 137.864c-2.699 11.532 6.996 23.448 18.836 23.146h28.337c9.12 0 17.039-6.47 18.858-15.396l9.8-45.158c.878-4.048-1.691-8.042-5.739-8.92-4.044-.878-8.042 1.689-8.92 5.738l-9.811 45.209c-.008.04-.017.08-.025.12-.395 1.974-2.146 3.406-4.164 3.406h-28.337c-3.235-.484-4.291-1.778-4.163-5.031l30.658-140.979h36.952l-11.549 53.212-7.862-3.127c-3.851-1.534-8.211.348-9.741 4.196-1.531 3.849.348 8.21 4.196 9.741l49.227 19.583c14.043 5.588 29.511 5.587 43.554 0l24.915-9.912 15.608 71.92c1.819 8.926 9.739 15.396 18.858 15.396h28.337c11.841.301 21.535-11.614 18.836-23.146l-24.232-111.428c-.879-4.048-4.876-6.612-8.922-5.735-4.047.881-6.615 4.875-5.735 8.923l24.216 111.355c.128 3.253-.928 4.548-4.163 5.031h-28.337c-2.018 0-3.769-1.433-4.164-3.406-.008-.04-.017-.08-.025-.12l-16.148-74.41 10.182-4.05c3.849-1.531 5.728-5.893 4.196-9.741s-5.89-5.727-9.741-4.196l-7.862 3.128-11.548-53.214h189.541c11.254 0 20.411-9.156 20.411-20.411v-21.064c.002-9.995-7.227-18.32-16.728-20.06zm-186.977-262.239c0 5.155-4.194 9.35-9.35 9.35h-85.887c-5.155 0-9.35-4.194-9.35-9.35v-8.398h104.586v8.398zm-8.826 382.61-27.235 10.834c-10.468 4.164-21.997 4.164-32.464 0l-27.236-10.835 12.768-58.834h61.398zm197.533-79.245c0 2.983-2.427 5.411-5.411 5.411h-198.919c-.003 0-.005 0-.008 0h-272.251c-2.983 0-5.411-2.428-5.411-5.411v-21.064c0-2.983 2.427-5.411 5.411-5.411h471.179c2.983 0 5.411 2.428 5.411 5.411v21.064z"/><path d="m339.539 138.65-7.915-7.915c-7.142-7.142-18.763-7.141-25.905 0l-60.686 60.686c-2.929 2.93-2.929 7.678 0 10.607 2.929 2.928 7.678 2.928 10.606 0l60.686-60.686c1.294-1.295 3.398-1.295 4.692 0l7.915 7.915c7.143 7.142 18.764 7.142 25.906 0l78.975-78.975v28.278c0 4.143 3.358 7.5 7.5 7.5s7.5-3.357 7.5-7.5v-46.382c.075-4.029-3.474-7.573-7.5-7.503h-46.385c-4.142 0-7.5 3.357-7.5 7.5s3.358 7.5 7.5 7.5h28.278l-78.975 78.975c-1.293 1.294-3.398 1.296-4.692 0z"/><path d="m241.375 255.8c0 8.254 6.716 14.97 14.97 14.97h19.851c8.254 0 14.97-6.716 14.97-14.97v-19.852c0-8.254-6.716-14.97-14.97-14.97h-19.851c-8.254 0-14.97 6.716-14.97 14.97zm34.792-19.851.036 19.821-19.827.03-.03-19.821z"/><path d="m336.016 220.979c-8.254 0-14.97 6.716-14.97 14.97v19.851c0 8.254 6.716 14.97 14.97 14.97h19.851c8.254 0 14.97-6.716 14.97-14.97v-19.852c0-8.254-6.716-14.97-14.97-14.97h-19.851zm.029 34.821-.03-19.821 19.821-.03.036 19.821z"/><path d="m434.531 220.979h-19.851c-8.254 0-14.97 6.716-14.97 14.97v19.851c0 8.254 6.716 14.97 14.97 14.97h19.851c8.255 0 14.971-6.716 14.971-14.97v-19.852c-.001-8.253-6.716-14.969-14.971-14.969zm-19.821 34.821-.03-19.821 19.821-.03.035 19.821z"/><path d="m115.063 240.09c-4.142 0-7.5 3.357-7.5 7.5s3.358 7.5 7.5 7.5h39.39c4.142 0 7.5-3.357 7.5-7.5s-3.358-7.5-7.5-7.5z"/><path d="m119.181 166.88c4.095 2.679 7.328 3.991 10.884 4.597v.862c0 4.143 3.357 7.5 7.5 7.5s7.5-3.357 7.5-7.5v-1.691c8.192-2.894 13.436-10.242 14.659-17.516 1.713-10.191-3.804-19.396-13.729-22.903-4.889-1.728-10.277-3.801-13.183-6.079-.25-.196-.609-1.134-.351-2.509.124-.654.69-2.839 2.812-3.478 4.941-1.486 8.082.964 8.425 1.249l2.81 1.335s7.067 3.173 9.519-3.317c1.961-5.191-2.287-9.158-2.287-9.158-1.72-1.586-4.746-3.506-8.676-4.629v-.758c0-4.143-3.357-7.5-7.5-7.5s-7.5 3.357-7.5 7.5v1.217c-6.344 2.265-11.038 7.836-12.343 14.761-1.268 6.726.969 13.273 5.834 17.09 4.601 3.608 11.102 6.179 17.44 8.419 3.893 1.376 4.288 4.171 3.935 6.274-.507 3.015-3.043 6.271-7.417 6.301-5.122.032-6.355-.155-10.122-2.619-3.467-2.27-8.115-1.296-10.382 2.171-2.267 3.466-1.295 8.115 2.172 10.381z"/></g></g></svg>