<svg xmlns="http://www.w3.org/2000/svg" xmlns:xlink="http://www.w3.org/1999/xlink" width="1920" height="1080" viewBox="0 0 1920 1080">
  <defs>
    <clipPath id="clip-Web_1920_1">
      <rect width="1920" height="1080"/>
    </clipPath>
  </defs>
  <g id="Web_1920_1" data-name="Web 1920 – 1" clip-path="url(#clip-Web_1920_1)">
    <circle id="Ellipse_26" data-name="Ellipse 26" cx="4" cy="4" r="4" transform="translate(471 40)" fill="#fff" opacity="0.437"/>
    <circle id="Ellipse_27" data-name="Ellipse 27" cx="4" cy="4" r="4" transform="translate(333 233)" fill="#fff" opacity="0.7"/>
    <circle id="Ellipse_28" data-name="Ellipse 28" cx="4" cy="4" r="4" transform="translate(316 400)" fill="#fff" opacity="0.5"/>
    <circle id="Ellipse_29" data-name="Ellipse 29" cx="4" cy="4" r="4" transform="translate(545 202)" fill="#fff" opacity="0.3"/>
    <circle id="Ellipse_33" data-name="Ellipse 33" cx="4" cy="4" r="4" transform="translate(770 297)" fill="#fff" opacity="0.3"/>
    <circle id="Ellipse_30" data-name="Ellipse 30" cx="4" cy="4" r="4" transform="translate(537 591)" fill="#fff" opacity="0.7"/>
    <circle id="Ellipse_31" data-name="Ellipse 31" cx="4" cy="4" r="4" transform="translate(364 761)" fill="#fff" opacity="0.3"/>
    <circle id="Ellipse_32" data-name="Ellipse 32" cx="4" cy="4" r="4" transform="translate(626 825)" fill="#fff" opacity="0.2"/>
    <circle id="Ellipse_34" data-name="Ellipse 34" cx="4" cy="4" r="4" transform="translate(726 1011)" fill="#fff" opacity="0.7"/>
    <circle id="Ellipse_35" data-name="Ellipse 35" cx="4" cy="4" r="4" transform="translate(979 940)" fill="#fff" opacity="0.2"/>
    <circle id="Ellipse_38" data-name="Ellipse 38" cx="4" cy="4" r="4" transform="translate(987 588)" fill="#fff" opacity="0.6"/>
    <circle id="Ellipse_50" data-name="Ellipse 50" cx="4" cy="4" r="4" transform="translate(37 24)" fill="#fff" opacity="0.6"/>
    <circle id="Ellipse_51" data-name="Ellipse 51" cx="4" cy="4" r="4" transform="translate(174 540)" fill="#fff" opacity="0.2"/>
    <circle id="Ellipse_49" data-name="Ellipse 49" cx="4" cy="4" r="4" transform="translate(774 508)" fill="#fff" opacity="0.2"/>
    <circle id="Ellipse_36" data-name="Ellipse 36" cx="4" cy="4" r="4" transform="translate(1215 719)" fill="#fff" opacity="0.5"/>
    <circle id="Ellipse_37" data-name="Ellipse 37" cx="4" cy="4" r="4" transform="translate(1328 896)" fill="#fff" opacity="0.3"/>
    <circle id="Ellipse_39" data-name="Ellipse 39" cx="4" cy="4" r="4" transform="translate(1575 932)" fill="#fff" opacity="0.5"/>
    <circle id="Ellipse_40" data-name="Ellipse 40" cx="4" cy="4" r="4" transform="translate(1535 575)" fill="#fff" opacity="0.8"/>
    <circle id="Ellipse_48" data-name="Ellipse 48" cx="4" cy="4" r="4" transform="translate(1812 351)" fill="#c7f0ff" opacity="0.8"/>
    <circle id="Ellipse_41" data-name="Ellipse 41" cx="4" cy="4" r="4" transform="translate(1435 380)" fill="#fff" opacity="0.5"/>
    <circle id="Ellipse_42" data-name="Ellipse 42" cx="4" cy="4" r="4" transform="translate(1592 194)" fill="#fff" opacity="0.2"/>
    <circle id="Ellipse_43" data-name="Ellipse 43" cx="4" cy="4" r="4" transform="translate(1359 32)" fill="#fff" opacity="0.6"/>
    <circle id="Ellipse_44" data-name="Ellipse 44" cx="4" cy="4" r="4" transform="translate(1182 76)" fill="#fff" opacity="0.2"/>
    <circle id="Ellipse_45" data-name="Ellipse 45" cx="4" cy="4" r="4" transform="translate(1160 241)" fill="#fff" opacity="0.7"/>
    <circle id="Ellipse_46" data-name="Ellipse 46" cx="4" cy="4" r="4" transform="translate(945 384)" fill="#fff" opacity="0.2"/>
    <circle id="Ellipse_47" data-name="Ellipse 47" cx="4" cy="4" r="4" transform="translate(1282 376)" fill="#fff" opacity="0.2"/>
  </g>
</svg>
